<svg width="164" height="48" viewBox="0 0 164 48" fill="none" xmlns="http://www.w3.org/2000/svg">
<circle cx="19" cy="19" r="19" fill="#E0EBA5"/>
<path d="M17.3824 29.5516C17.9873 30.1495 18.9952 30.1495 19.6289 29.5516L25.2161 24.0294C29.0753 20.2151 28.9313 13.8957 24.7266 10.3091C21.1842 7.23504 15.8272 7.23504 12.2848 10.2807C8.07982 13.8959 7.90707 20.1866 11.7952 24.0294L17.3824 29.5516ZM18.5056 13.2126C20.6657 13.2126 22.3938 14.9206 22.3938 17.0555C22.3938 19.1904 20.6657 20.8984 18.5056 20.8984C16.3456 20.8984 14.6175 19.1904 14.6175 17.0555C14.6177 14.9206 16.3456 13.2126 18.5056 13.2126Z" fill="#1C1C1C"/>
<path d="M62.7142 37.7423C60.3849 37.7423 58.2196 37.317 56.2183 36.4663C54.2499 35.6155 52.5439 34.4376 51.1003 32.9325C49.6896 31.3947 48.6562 29.6115 48 27.5828L53.5609 25.1779C54.4467 27.272 55.7262 28.9243 57.3994 30.135C59.0726 31.3129 60.959 31.9018 63.0587 31.9018C64.2398 31.9018 65.2568 31.7219 66.1098 31.362C66.9956 30.9693 67.6682 30.4458 68.1275 29.7914C68.6196 29.137 68.8657 28.3517 68.8657 27.4356C68.8657 26.3558 68.5376 25.4724 67.8815 24.7853C67.2581 24.0654 66.3067 23.5092 65.0272 23.1166L57.9899 20.8589C55.1357 19.9755 52.9868 18.6503 51.5432 16.8834C50.0997 15.1166 49.3779 13.0389 49.3779 10.6503C49.3779 8.55624 49.8864 6.70757 50.9035 5.10429C51.9533 3.50102 53.3969 2.25767 55.2341 1.37423C57.1041 0.458078 59.2366 0 61.6316 0C63.8297 0 65.8474 0.392638 67.6846 1.17791C69.5218 1.93047 71.0966 2.99386 72.4089 4.3681C73.754 5.70961 74.7547 7.29652 75.4108 9.12883L69.8991 11.5828C69.1774 9.75051 68.0947 8.34356 66.6512 7.36196C65.2076 6.34765 63.5344 5.84049 61.6316 5.84049C60.5161 5.84049 59.5319 6.03681 58.6789 6.42945C57.8259 6.78937 57.1533 7.31288 56.6612 8C56.2019 8.6544 55.9723 9.43967 55.9723 10.3558C55.9723 11.3701 56.3003 12.2699 56.9565 13.0552C57.6126 13.8078 58.6133 14.3967 59.9584 14.8221L66.7004 16.9325C69.6203 17.8814 71.802 19.1902 73.2455 20.8589C74.7219 22.5276 75.46 24.589 75.46 27.0429C75.46 29.137 74.9187 30.9857 73.836 32.589C72.7534 34.1922 71.2606 35.4519 69.3578 36.3681C67.455 37.2843 65.2404 37.7423 62.7142 37.7423Z" fill="#1C1C1C"/>
<path d="M84.1931 48C83.4714 48 82.766 47.9346 82.0771 47.8037C81.3881 47.7055 80.7647 47.5256 80.207 47.2638V41.865C80.6335 41.9632 81.142 42.0614 81.7326 42.1595C82.3559 42.2577 82.93 42.3068 83.455 42.3068C84.9313 42.3068 85.9976 41.9632 86.6537 41.2761C87.3427 40.589 87.9496 39.6892 88.4745 38.5767L90.2462 34.454L90.1477 39.8528L78.4846 10.454H85.4234L93.5925 32.1472H91.132L99.2519 10.454H106.24L94.5768 39.8528C93.8878 41.5869 93.0512 43.0593 92.067 44.2699C91.0828 45.4806 89.9345 46.3967 88.6222 47.0184C87.3427 47.6728 85.8663 48 84.1931 48Z" fill="#1C1C1C"/>
<path d="M109.78 37.1534V10.454H115.833V15.7055L115.341 14.773C115.964 13.1697 116.981 11.9591 118.392 11.1411C119.836 10.2904 121.509 9.86503 123.412 9.86503C125.38 9.86503 127.119 10.2904 128.628 11.1411C130.17 11.9918 131.368 13.1861 132.221 14.7239C133.074 16.229 133.5 17.9796 133.5 19.9755V37.1534H127.053V21.4969C127.053 20.319 126.824 19.3047 126.364 18.454C125.905 17.6033 125.265 16.9489 124.445 16.4908C123.658 16 122.723 15.7546 121.64 15.7546C120.59 15.7546 119.655 16 118.835 16.4908C118.015 16.9489 117.375 17.6033 116.916 18.454C116.456 19.3047 116.227 20.319 116.227 21.4969V37.1534H109.78Z" fill="#1C1C1C"/>
<path d="M151.845 37.7423C149.187 37.7423 146.792 37.137 144.66 35.9264C142.56 34.683 140.903 33.0143 139.69 30.9202C138.476 28.7935 137.869 26.4049 137.869 23.7546C137.869 21.1043 138.476 18.7321 139.69 16.638C140.903 14.544 142.56 12.8916 144.66 11.681C146.792 10.4703 149.187 9.86503 151.845 9.86503C153.748 9.86503 155.519 10.2086 157.16 10.8957C158.8 11.5501 160.211 12.4663 161.392 13.6442C162.606 14.7894 163.475 16.1636 164 17.7669L158.341 20.2209C157.849 18.8793 157.012 17.7996 155.831 16.9816C154.683 16.1636 153.354 15.7546 151.845 15.7546C150.434 15.7546 149.171 16.0982 148.055 16.7853C146.973 17.4724 146.12 18.4213 145.496 19.6319C144.873 20.8425 144.561 22.2331 144.561 23.8037C144.561 25.3742 144.873 26.7648 145.496 27.9755C146.12 29.1861 146.973 30.135 148.055 30.8221C149.171 31.5092 150.434 31.8528 151.845 31.8528C153.387 31.8528 154.732 31.4438 155.88 30.6258C157.028 29.8078 157.849 28.7117 158.341 27.3374L164 29.8896C163.475 31.3947 162.622 32.7526 161.441 33.9632C160.26 35.1411 158.849 36.0736 157.209 36.7607C155.568 37.4151 153.78 37.7423 151.845 37.7423Z" fill="#1C1C1C"/>
</svg>
