<svg id="logo-footer" xmlns="http://www.w3.org/2000/svg" width="164" height="48" viewBox="0 0 164 48">
  <circle id="Ellipse_559" data-name="Ellipse 559" cx="19" cy="19" r="19" fill="#e0eba5"/>
  <path id="Path_2520" data-name="Path 2520" d="M17.382,29.552a1.631,1.631,0,0,0,2.247,0l5.587-5.522a9.3,9.3,0,0,0-.49-13.72,9.579,9.579,0,0,0-12.442-.028,9.31,9.31,0,0,0-.49,13.749Zm1.123-16.339a3.843,3.843,0,1,1-3.888,3.843A3.85,3.85,0,0,1,18.506,13.213Z" fill="#1c1c1c"/>
  <path id="Path_2521" data-name="Path 2521" d="M62.714,37.742a16.431,16.431,0,0,1-6.5-1.276A15.568,15.568,0,0,1,51.1,32.932a14.344,14.344,0,0,1-3.1-5.35l5.561-2.4A11.473,11.473,0,0,0,57.4,30.135,9.6,9.6,0,0,0,63.059,31.9a7.823,7.823,0,0,0,3.051-.54,4.728,4.728,0,0,0,2.018-1.571,3.808,3.808,0,0,0,.738-2.356,3.68,3.68,0,0,0-.984-2.65,6.005,6.005,0,0,0-2.854-1.669L57.99,20.859a13.027,13.027,0,0,1-6.447-3.976,9.551,9.551,0,0,1-2.165-6.233A10.13,10.13,0,0,1,50.9,5.1a10.476,10.476,0,0,1,4.331-3.73A14.357,14.357,0,0,1,61.632,0a15.243,15.243,0,0,1,6.053,1.178,13.54,13.54,0,0,1,4.724,3.19,12.659,12.659,0,0,1,3,4.761L69.9,11.583a8.863,8.863,0,0,0-3.248-4.221,8.511,8.511,0,0,0-5.02-1.521,6.992,6.992,0,0,0-2.953.589A4.629,4.629,0,0,0,56.661,8a4,4,0,0,0-.689,2.356,4.09,4.09,0,0,0,.984,2.7,6.471,6.471,0,0,0,3,1.767l6.742,2.11a14.257,14.257,0,0,1,6.545,3.926,9,9,0,0,1,2.215,6.184,9.675,9.675,0,0,1-1.624,5.546,11.051,11.051,0,0,1-4.478,3.779A15.15,15.15,0,0,1,62.714,37.742Z" fill="#fff"/>
  <path id="Path_2522" data-name="Path 2522" d="M84.193,48a11.311,11.311,0,0,1-2.116-.2,6.553,6.553,0,0,1-1.87-.54v-5.4q.64.147,1.526.294a11.127,11.127,0,0,0,1.722.147,4.265,4.265,0,0,0,3.2-1.031,9.488,9.488,0,0,0,1.821-2.7l1.772-4.123-.1,5.4-11.663-29.4h6.939l8.169,21.693h-2.46l8.12-21.693h6.988l-11.663,29.4a16.758,16.758,0,0,1-2.51,4.417,9.856,9.856,0,0,1-3.445,2.748A9.6,9.6,0,0,1,84.193,48Z" fill="#fff"/>
  <path id="Path_2523" data-name="Path 2523" d="M109.78,37.153v-26.7h6.053v5.251l-.492-.932a6.972,6.972,0,0,1,3.051-3.632,9.7,9.7,0,0,1,5.02-1.276,10.439,10.439,0,0,1,5.216,1.276,9,9,0,0,1,3.593,3.583,10.469,10.469,0,0,1,1.279,5.252V37.153h-6.447V21.5a6.31,6.31,0,0,0-.689-3.043,4.817,4.817,0,0,0-1.919-1.963,5.193,5.193,0,0,0-2.805-.736,5.355,5.355,0,0,0-2.805.736,4.817,4.817,0,0,0-1.919,1.963,6.31,6.31,0,0,0-.689,3.043V37.153Z" fill="#fff"/>
  <path id="Path_2524" data-name="Path 2524" d="M151.845,37.742a14.292,14.292,0,0,1-7.185-1.816,13.729,13.729,0,0,1-4.97-5.006,14.2,14.2,0,0,1-1.821-7.166,13.928,13.928,0,0,1,1.821-7.117,13.355,13.355,0,0,1,4.97-4.957,14.291,14.291,0,0,1,7.185-1.816A13.619,13.619,0,0,1,157.16,10.9a12.445,12.445,0,0,1,4.232,2.748A9.745,9.745,0,0,1,164,17.767l-5.659,2.454a6.852,6.852,0,0,0-6.5-4.466,7.081,7.081,0,0,0-3.79,1.031,7.2,7.2,0,0,0-2.559,2.847,8.99,8.99,0,0,0-.935,4.172,8.99,8.99,0,0,0,.935,4.172,7.2,7.2,0,0,0,2.559,2.847,7.081,7.081,0,0,0,3.79,1.031,6.686,6.686,0,0,0,6.5-4.515L164,29.89a10.963,10.963,0,0,1-2.559,4.074,13.069,13.069,0,0,1-4.232,2.8A14.351,14.351,0,0,1,151.845,37.742Z" fill="#fff"/>
</svg>
